<svg id="SvgjsSvg1001" width="288" height="288" xmlns="http://www.w3.org/2000/svg" version="1.1" xmlns:xlink="http://www.w3.org/1999/xlink" xmlns:svgjs="http://svgjs.com/svgjs"><defs id="SvgjsDefs1002"></defs><g id="SvgjsG1008" transform="matrix(1,0,0,1,0,0)"><svg xmlns="http://www.w3.org/2000/svg" width="288" height="288" viewBox="0 0 24 24"><circle cx="10" cy="10" r="10" fill="#007acb" transform="translate(2 2)" class="colorb2bfce svgShape"></circle><path fill="#0f112d" d="M344.239 309a12 12 0 1 0 12 12 12 12 0 0 0-12-12zm3.748 7.085c-.312.006-.622 0-.931.02a8.579 8.579 0 0 0-1 .093.775.775 0 0 0-.631.645 8.81 8.81 0 0 0-.069 2.23h2.514c.026.886-.225 1.673-.254 2.545h-2.232c-.021.277-.05.491-.051.706q-.006 2.644 0 5.288v.672h-2.6v-6.6c-.764-.11-1.493 0-2.241-.074v-2.51l2.23-.049c0-.308-.006-.565 0-.822a14.26 14.26 0 0 1 .082-1.96 2.811 2.811 0 0 1 2.587-2.492 8.433 8.433 0 0 1 2.6.065z" transform="translate(-332.239 -308.996)" class="color0f112d svgShape"></path></svg></g></svg>