<svg id="SvgjsSvg1001" width="288" height="288" xmlns="http://www.w3.org/2000/svg" version="1.1" xmlns:xlink="http://www.w3.org/1999/xlink" xmlns:svgjs="http://svgjs.com/svgjs"><defs id="SvgjsDefs1002"></defs><g id="SvgjsG1008" transform="matrix(1,0,0,1,0,0)"><svg xmlns="http://www.w3.org/2000/svg" width="288" height="288" viewBox="0 0 24 24"><circle cx="10" cy="10" r="10" fill="#007acb" transform="translate(2 2)" class="colorb2bfce svgShape"></circle><path fill="#0f112d" d="M1145.378 309a12 12 0 1 0 12 12 12 12 0 0 0-12-12zm5.756 8.9a.846.846 0 0 0-.337.712 8.2 8.2 0 0 1-2.928 6.212 7.31 7.31 0 0 1-3.69 1.674 8.06 8.06 0 0 1-4.93-.677 1.919 1.919 0 0 1-.5-.343 6.116 6.116 0 0 0 3.825-1.269 2.993 2.993 0 0 1-2.563-1.908l.977-.061.041-.113a2.932 2.932 0 0 1-2.05-2.66l1.044.23a3.118 3.118 0 0 1-.672-3.74 8.351 8.351 0 0 0 4.248 2.688 4.281 4.281 0 0 0 1.571.207v-.513a2.7 2.7 0 0 1 1.569-2.647 2.637 2.637 0 0 1 3 .336.76.76 0 0 0 .819.148c.367-.129.731-.267 1.1-.4-.067.4-.067.4-.9 1.375l1.247-.262a2.594 2.594 0 0 1-.871 1.011z" transform="translate(-1133.378 -308.996)" class="color0f112d svgShape"></path></svg></g></svg>