<svg id="SvgjsSvg1001" width="288" height="288" xmlns="http://www.w3.org/2000/svg" version="1.1" xmlns:xlink="http://www.w3.org/1999/xlink" xmlns:svgjs="http://svgjs.com/svgjs"><defs id="SvgjsDefs1002"></defs><g id="SvgjsG1008" transform="matrix(1,0,0,1,0,0)"><svg xmlns="http://www.w3.org/2000/svg" width="288" height="288" viewBox="0 0 24 23.999"><circle cx="11" cy="11" r="11" fill="#ffffff" transform="translate(1 1)" class="colorb2bfce svgShape"></circle><path fill="#0f112d" d="M397.683 652.622a1.279 1.279 0 1 1-1.277-1.356 1.319 1.319 0 0 1 1.277 1.356z" transform="translate(-386.748 -639.913)" class="color0f112d svgShape"></path><path fill="#0f112d" d="M433.273 652.622a1.279 1.279 0 1 1-1.273-1.356 1.319 1.319 0 0 1 1.273 1.356z" transform="translate(-417.653 -639.913)" class="color0f112d svgShape"></path><path fill="#0f112d" d="M343.461 565.026a12 12 0 1 0 12 12 12 12 0 0 0-12-12zm3.56 17.4l-.811-1.172a4.673 4.673 0 0 0 2.241-1.438 9.377 9.377 0 0 1-9.979 0 4.673 4.673 0 0 0 2.241 1.438l-.811 1.172a4.743 4.743 0 0 1-3.965-1.847s.105-5.256 1.971-7.659a5.489 5.489 0 0 1 3.527-1.307v.361a4.413 4.413 0 0 0-3.005 1.559 9.36 9.36 0 0 1 10.064 0 4.409 4.409 0 0 0-3-1.559v-.361a5.489 5.489 0 0 1 3.527 1.307c1.865 2.4 1.969 7.659 1.969 7.659a4.74 4.74 0 0 1-3.97 1.846z" transform="translate(-331.46 -565.026)" class="color0f112d svgShape"></path></svg></g></svg>