<svg id="SvgjsSvg1001" width="288" height="288" xmlns="http://www.w3.org/2000/svg" version="1.1" xmlns:xlink="http://www.w3.org/1999/xlink" xmlns:svgjs="http://svgjs.com/svgjs"><defs id="SvgjsDefs1002"></defs><g id="SvgjsG1008" transform="matrix(1,0,0,1,0,0)"><svg xmlns="http://www.w3.org/2000/svg" width="288" height="288" viewBox="0 0 24 24"><circle cx="10" cy="10" r="10" fill="#ffffff" transform="translate(2 2)" class="colorb2bfce svgShape"></circle><path fill="#0f112d" d="M736.781 569.736a12 12 0 1 0 12 12 12 12 0 0 0-12-12zm5.432 7.138l-2.141 10.088c-.159.716-.584.89-1.178.553l-3.262-2.4-1.572 1.515a.826.826 0 0 1-.658.321l.232-3.319 6.044-5.461c.263-.23-.059-.361-.406-.13l-7.469 4.7-3.219-1c-.7-.223-.715-.7.147-1.036l12.576-4.85c.584-.211 1.094.142.9 1.026z" transform="translate(-724.78 -569.736)" class="color0f112d svgShape"></path></svg></g></svg>